<?xml version="1.0" encoding="UTF-8" standalone="no"?>
<svg width="16px" height="9px" viewBox="0 0 16 9" version="1.1" xmlns="http://www.w3.org/2000/svg" xmlns:xlink="http://www.w3.org/1999/xlink">
    <!-- Generator: Sketch 39.1 (31720) - http://www.bohemiancoding.com/sketch -->
    <title>Show Password Icon</title>
    <desc>Created with Sketch.</desc>
    <defs></defs>
    <g id="Login/Signup" stroke="none" stroke-width="1" fill="none" fill-rule="evenodd">
        <g id="Signup" transform="translate(-744.000000, -615.000000)" fill="#7F8FA4">
            <g id="Form" transform="translate(594.000000, 417.000000)">
                <g id="Password" transform="translate(0.000000, 160.000000)">
                    <path d="M159.055287,43 C159.055287,43.3286573 158.383972,44 158.055287,44 C156.726602,44 156.055287,43.3286573 156.055287,43 C156.055287,41.6713427 156.726602,41 158.055287,41 C158.383972,41 159.055287,41.6713427 159.055287,43 L159.055287,43 Z M158.055287,46 C155.622272,46 154.055287,44.4326566 154.055287,43 C154.055287,40.5663426 155.622272,39 158.055287,39 C159.488302,39 161.055287,40.5663426 161.055287,43 C161.055287,44.4326566 159.488302,46 158.055287,46 L158.055287,46 Z M165.055287,42 C163.912025,40.5564319 161.55365,38 158.055287,38 C153.585249,38 151.208848,40.5624306 150.055287,42 C149.984096,42.2250611 149.979089,42.7809376 150.055287,43 C151.173798,44.4505665 153.501128,47 158.055287,47 C161.573679,47 163.920036,44.4465674 165.055287,43 C165.129767,42.778938 165.128766,42.2220618 165.055287,42 L165.055287,42 Z" id="Show-Password-Icon"></path>
                </g>
            </g>
        </g>
    </g>
</svg>