<?xml version="1.0" encoding="UTF-8" standalone="no"?>
<svg width="45px" height="31px" viewBox="0 0 45 31" version="1.1" xmlns="http://www.w3.org/2000/svg" xmlns:xlink="http://www.w3.org/1999/xlink">
    <!-- Generator: Sketch 39.1 (31720) - http://www.bohemiancoding.com/sketch -->
    <title>Icon</title>
    <desc>Created with Sketch.</desc>
    <defs></defs>
    <g id="Messages" stroke="none" stroke-width="1" fill="none" fill-rule="evenodd">
        <g id="Messages---Attach" transform="translate(-768.000000, -403.000000)" fill="#E2E3E9">
            <g id="Group" transform="translate(575.000000, 274.000000)">
                <g id="Content" transform="translate(30.000000, 90.000000)">
                    <g id="TextArea-Feeback">
                        <path d="M203.0089,52.5652 C202.3309,52.2442 201.9609,51.5322 202.0659,50.8022 C202.3269,48.9992 202.1139,47.0492 201.1099,45.0022 C199.5659,41.8562 196.5059,39.5402 192.9729,39.0902 C188.6829,38.5442 184.8149,40.5112 182.6789,43.6942 C182.1439,44.4912 181.0149,44.6462 180.2159,44.1022 C178.4579,42.9052 176.1619,42.4262 173.7229,43.1442 C172.4109,43.5302 171.2789,44.3102 170.3869,45.3282 C168.5589,47.4152 168.3729,49.3032 168.5709,50.8732 C168.6709,51.6702 168.2079,52.4222 167.4949,52.8172 C164.6699,54.3842 162.8049,57.4102 163.0159,60.8662 C163.3009,65.5192 167.5299,69.0112 172.2869,69.0112 L179.9939,69.0112 C181.4709,69.0112 183.0189,68.4552 183.0189,67.0072 L183.0189,64.0072 C183.0189,63.3602 181.6799,63.0072 181.0189,63.0072 L178.8629,62.9922 C178.1329,62.9922 177.7339,62.1172 178.2009,61.5402 L185.0189,53.0072 C185.4959,52.4472 186.5429,52.4472 187.0189,53.0072 L193.8069,61.5402 C194.2749,62.1172 193.8759,62.9922 193.1459,62.9922 L191.0189,63.0072 C190.3589,63.0072 189.0189,63.3602 189.0189,64.0072 L189.0189,67.0072 C189.0189,68.4552 190.6869,69.0112 192.1639,69.0112 L198.8309,69.0112 C203.2239,69.0112 207.2019,66.0142 207.8969,61.7642 C208.5559,57.7312 206.3679,54.1552 203.0089,52.5642 L203.0089,52.5652 Z" id="Icon"></path>
                    </g>
                </g>
            </g>
        </g>
    </g>
</svg>