<?xml version="1.0" encoding="UTF-8" standalone="no"?>
<svg width="18px" height="18px" viewBox="0 0 18 18" version="1.1" xmlns="http://www.w3.org/2000/svg" xmlns:xlink="http://www.w3.org/1999/xlink">
    <!-- Generator: Sketch 39.1 (31720) - http://www.bohemiancoding.com/sketch -->
    <title>CheckMark</title>
    <desc>Created with Sketch.</desc>
    <defs></defs>
    <g id="Subcontractors" stroke="none" stroke-width="1" fill="none" fill-rule="evenodd">
        <g transform="translate(-407.000000, -200.000000)" id="Content">
            <g transform="translate(205.000000, 176.000000)">
                <g id="Card">
                    <g id="CheckMark" transform="translate(202.000000, 24.000000)">
                        <path d="M9,0 C4.029,0 0,4.029 0,9 C0,13.97 4.029,18 9,18 C13.97,18 18,13.97 18,9 C18,4.029 13.97,0 9,0" id="Check" fill="#1BB934"></path>
                        <path d="M14.51,6.939 L8.439,13.01 C8.048,13.401 7.415,13.401 7.025,13.01 L4.489,10.475 C4.099,10.084 4.099,9.451 4.489,9.06 C4.88,8.67 5.513,8.67 5.903,9.06 L7.732,10.889 L13.096,5.525 C13.486,5.134 14.119,5.134 14.51,5.525 C14.901,5.915 14.901,6.548 14.51,6.939" id="Path" fill="#FFFFFF"></path>
                    </g>
                </g>
            </g>
        </g>
    </g>
</svg>